<svg viewBox="0 0 512 512" xml:space="preserve" xmlns="http://www.w3.org/2000/svg" enable-background="new 0 0 512 512"><path d="M229.329 287.5h-36.454c-7.173 0-13.009 5.798-13.009 12.925v12.17c0 .691.599 1.275 1.309 1.275h59.853c.709 0 1.309-.584 1.309-1.275v-12.17c-.001-7.127-5.836-12.925-13.008-12.925zM287.601 330.391a94.897 94.897 0 0 1-6.589 7.785c-.706.748-1.42 1.49-2.152 2.22a97.151 97.151 0 0 1-2.66 2.538 97.255 97.255 0 0 1-2.146 1.924l-.071.063a95.41 95.41 0 0 1-5.139 4.146l13.061 12.996 18.762-18.672-13.066-13z" fill="#ffffff" class="fill-000000"></path><path d="m283.085 320.567.033-.044c9.142-13.727 14.056-29.815 14.055-46.658-.001-22.619-8.853-43.883-24.924-59.877-16.079-16.003-37.458-24.816-60.197-24.816-22.74 0-44.118 8.813-60.196 24.816-16.069 15.994-24.918 37.258-24.919 59.877-.001 22.621 8.849 43.89 24.919 59.888 16.078 16.002 37.456 24.813 60.196 24.813 16.926 0 33.094-4.89 46.888-13.984.021-.015.04-.032.063-.047a85.553 85.553 0 0 0 13.246-10.782 85.921 85.921 0 0 0 10.836-13.186zM211.182 213.25c12.449 0 22.577 10.122 22.577 22.562 0 12.439-10.128 22.56-22.577 22.56-12.444 0-22.569-10.121-22.569-22.56 0-12.441 10.124-22.562 22.569-22.562zm40.526 99.345c0 5.87-4.791 10.646-10.68 10.646h-59.853c-5.889 0-10.68-4.776-10.68-10.646v-12.17c0-12.294 10.04-22.296 22.38-22.296h36.454c12.339 0 22.378 10.002 22.378 22.296v12.17zM386.494 52.757v37.667h37.845z" fill="#ffffff" class="fill-000000"></path><path d="M211.182 249c7.281 0 13.206-5.916 13.206-13.189s-5.924-13.19-13.206-13.19c-7.277 0-13.198 5.917-13.198 13.19S203.904 249 211.182 249z" fill="#ffffff" class="fill-000000"></path><path d="M381.809 99.795a4.685 4.685 0 0 1-4.686-4.686V46.168H81.045l.062 419.664h349.848V99.795h-49.146zm-260.512 9.948h176.035a4.685 4.685 0 1 1 0 9.371H121.297a4.686 4.686 0 1 1 0-9.371zm0 34.31h251.477a4.685 4.685 0 1 1 0 9.372H121.297a4.687 4.687 0 0 1 0-9.372zm265.512 265.863-38.098 37.922a4.675 4.675 0 0 1-3.307 1.364 4.674 4.674 0 0 1-3.305-1.364l-69.852-69.523a4.684 4.684 0 0 1 .001-6.641l3.015-3-14.332-14.261c-14.596 8.814-31.374 13.525-48.88 13.525-25.235 0-48.96-9.781-66.807-27.542-17.851-17.771-27.681-41.398-27.68-66.53.001-25.129 9.832-48.754 27.68-66.519 17.847-17.763 41.572-27.545 66.807-27.545 25.234 0 48.96 9.782 66.808 27.545 17.852 17.765 27.684 41.389 27.685 66.519.001 17.422-4.729 34.121-13.575 48.646l14.341 14.271 3.044-3.029a4.688 4.688 0 0 1 6.611 0l69.844 69.521a4.682 4.682 0 0 1 0 6.641z" fill="#ffffff" class="fill-000000"></path><path d="m282.196 374.994 63.208 62.911 31.457-31.311-63.203-62.909-31.462 31.309zm63.612 24.036c4.947 0 8.959 3.992 8.959 8.916 0 4.929-4.012 8.919-8.959 8.919s-8.96-3.99-8.96-8.919c0-4.924 4.012-8.916 8.96-8.916z" fill="#ffffff" class="fill-000000"></path></svg>